# AST/ASF file generated using VICON BodyLanguage
# -----------------------------------------------
:version 1.10
:name VICON
:units
  mass 1.0
  length 0.45
  angle deg
:documentation
   .ast/.asf automatically generated from VICON data using
   VICON BodyBuilder and BodyLanguage model FoxedUp or BRILLIANT.MOD
:root
   order TX TY TZ RX RY RZ
   axis XYZ
   position 0 0 0  
   orientation 0 0 0 
:bonedata
  begin
     id 1 
     name lhipjoint
     direction 0.528046 -0.759594 0.379717 
     length 2.39752 
     axis 0 0 0  XYZ
  end
  begin
     id 2 
     name lfemur
     direction 0.34202 -0.939693 0  
     length 7.31175  
     axis 0 0 20  XYZ
    dof rx ry rz
    limits (-160.0 20.0)
           (-70.0 70.0)
           (-60.0 70.0)
  end
  begin
     id 3 
     name ltibia
     direction 0.34202 -0.939693 0   
     length 7.52482   
     axis 0 0 20   XYZ
    dof rx
    limits (-10.0 170.0)
  end
  begin
     id 4 
     name lfoot
     direction 0.0675379 -0.185559 0.980309   
     length 2.00961   
     axis -90 7.62852e-016 20   XYZ
    dof rx rz
    limits (-45.0 90.0)
           (-70.0 20.0)
  end
  begin
     id 5 
     name ltoes
     direction 1.5352e-011 -4.22286e-011 1   
     length 1.01383   
     axis -90 7.62852e-016 20   XYZ
    dof rx
    limits (-90.0 20.0)
  end
  begin
     id 6 
     name rhipjoint
     direction -0.510274 -0.769251 0.384544   
     length 2.36742  
     axis 0 0 0  XYZ 
  end
  begin
     id 7 
     name rfemur
     direction -0.34202 -0.939693 0   
     length 7.45325   
     axis 0 0 -20   XYZ
    dof rx ry rz
    limits (-160.0 20.0)
           (-70.0 70.0)
           (-70.0 60.0)
  end
  begin
     id 8 
     name rtibia
     direction -0.34202 -0.939693 0   
     length 7.49587   
     axis 0 0 -20   XYZ
    dof rx
    limits (-10.0 170.0)
 end
 begin
     id 9 
     name rfoot
     direction -0.106475 -0.292536 0.950308   
     length 2.20898  
     axis -90 -7.62852e-016 -20   XYZ
    dof rx rz
    limits (-45.0 90.0)
           (-20.0 70.0)
  end
  begin
     id 10 
     name rtoes
     direction -1.53597e-011 -4.22023e-011 1   
     length 1.10065   
     axis -90 -7.62852e-016 -20   XYZ
    dof rx
    limits (-90.0 20.0)
  end
  begin
     id 11 
     name lowerback
     direction 0.0260024 0.998026 -0.0571652   
     length 2.11214   
     axis 0 0 0   XYZ
    dof rx ry rz
    limits (-20.0 45.0)
           (-30.0 30.0)
           (-30.0 30.0)
  end
  begin
     id 12 
     name upperback
     direction 0.0216202 0.999542 -0.0211766   
     length 2.11689   
     axis 0 0 0   XYZ
    dof rx ry rz
    limits (-20.0 45.0)
           (-30.0 30.0)
           (-30.0 30.0)
  end
  begin
     id 13 
     name thorax
     direction 0.00883312 0.999944 0.00589057   
     length 2.11821   
     axis 0 0 0   XYZ
    dof rx ry rz
    limits (-20.0 45.0)
           (-30.0 30.0)
           (-30.0 30.0)
  end
  begin
     id 14 
     name lowerneck
     direction -0.059386 0.994433 0.0870401   
     length 1.81176   
     axis 0 0 0   XYZ
    dof rx ry rz
    limits (-20.0 45.0)
           (-30.0 30.0)
           (-30.0 30.0)
  end
  begin
     id 15 
     name upperneck
     direction 0.0506457 0.97328 -0.223967   
     length 1.82382   
     axis 0 0 0   XYZ
    dof rx ry rz
    limits (-20.0 45.0)
           (-30.0 30.0)
           (-30.0 30.0)
  end
  begin
     id 16
     name head
     direction 0.0205902 0.996147 -0.0852487  
     length 1.84805  
     axis 0 0 0   XYZ
    dof rx ry rz
    limits (-20.0 45.0)
           (-30.0 30.0)
           (-30.0 30.0)
  end
  begin
     id 17 
     name lclavicle
     direction 0.949493 0.303881 -0.0782325  
     length 3.60584  
     axis 0 0 0   XYZ
    dof ry rz
    limits (-20.0 10.0)
           (0.0 20.0)
  end
  begin
     id 18 
     name lhumerus
     direction 1 -4.48965e-011 1.48782e-027   
     length 4.95681   
     axis 180 -30 -90   XYZ
    dof rx ry rz
    limits (-60.0 90.0)
           (-90.0 90.0)
           (-90.0 90.0)
  end
  begin
     id 19
     name lradius
     direction 1 -4.48952e-011 2.06528e-027   
     length 3.40915   
     axis 180 -30 -90   XYZ
    dof rx
    limits (-10.0 170.0)
  end
  begin
     id 20
     name lwrist
     direction 1 -4.48964e-011 1.28021e-027   
     length 1.70457   
     axis -1.61767e-015 90 90   XYZ
    dof ry
    limits (-180.0 0.0)
 end
  begin
     id 21 
     name lhand
     direction 1 -4.49094e-011 2.54887e-027   
     length 0.616403   
     axis -1.63363e-015 90 90   XYZ
    dof rx rz
    limits (-90.0 90.0)
           (-45.0 45.0)
  end
  begin
     id 22 
     name lfingers
     direction 1 -4.49002e-011 5.11407e-027   
     length 0.49696   
     axis -3.26723e-015 90 90   XYZ
    dof rx
    limits (0.0 90.0)
  end
  begin
     id 23
     name lthumb
     direction 0.707107 -6.34998e-011 0.707107   
     length 0.713539   
     axis -90 45 -2.25915e-014   XYZ
    dof rx rz
    limits (-45.0 45.0)
           (-45.0 45.0)
  end
  begin
     id 24 
     name rclavicle
     direction -0.937751 0.334612 -0.0930482   
     length 3.46287  
     axis 0 0 0   XYZ 
    dof ry rz
    limits (-10.0 20.0)
           (-20.0 0.0)
  end
  begin
     id 25 
     name rhumerus
     direction -1 -4.48962e-011 3.59972e-027  
     length 5.352   
     axis 180 30 90   XYZ
    dof rx ry rz
    limits (-90.0 60.0)
           (-90.0 90.0)
           (-90.0 90.0)
  end
  begin
     id 26 
     name rradius
     direction -1 -4.48987e-011 -3.76925e-027   
     length 3.43721   
     axis 180 30 90   XYZ
    dof rx
    limits (-10.0 170.0)
  end
  begin
     id 27 
     name rwrist
     direction -1 -4.48943e-011 1.28112e-027   
     length 1.7186   
     axis -1.61767e-015 -90 -90   XYZ
    dof ry
    limits (-180.0 0.0)
  end
  begin
     id 28
     name rhand
     direction -1 -4.49027e-011 2.55483e-027   
     length 0.72009   
     axis -1.63363e-015 -90 -90   XYZ
    dof rx rz
    limits (-90.0 90.0)
           (-45.0 45.0)
  end
  begin
     id 29
     name rfingers
     direction -1 -4.48827e-011 5.14506e-027   
     length 0.580555   
     axis -3.26723e-015 -90 -90   XYZ
    dof rx
    limits (0.0 90.0)
  end
  begin
     id 30
     name rthumb
     direction -0.707107 -6.34936e-011 0.707107   
     length 0.833564   
     axis -90 -45 2.25915e-014   XYZ
    dof rx rz
    limits (-45.0 45.0)
           (-45.0 45.0)
  end
:hierarchy
  begin
    root lhipjoint rhipjoint lowerback
    lhipjoint lfemur
    lfemur ltibia
    ltibia lfoot
    lfoot ltoes
    rhipjoint rfemur
    rfemur rtibia
    rtibia rfoot
    rfoot rtoes
    lowerback upperback
    upperback thorax
    thorax lowerneck lclavicle rclavicle
    lowerneck upperneck
    upperneck head
    lclavicle lhumerus
    lhumerus lradius
    lradius lwrist
    lwrist lhand lthumb
    lhand lfingers
    rclavicle rhumerus
    rhumerus rradius
    rradius rwrist
    rwrist rhand rthumb
    rhand rfingers
  end

#!OML:ASF H:\Terrain\Patient Classification 1\Terrain2\Thursday\justin.ASF
:FULLY-SPECIFIED
:DEGREES
853
root -8.8856 17.3527 21.4608 -46.7593 76.1796 -49.4054
lowerback 4.8407 2.21298 9.32856
upperback 2.38082 3.50916 3.86407
thorax 0.0678698 1.87051 -1.36381
lowerneck -15.2933 -0.767682 -7.53524
upperneck 32.9899 1.63474 1.67245
head 13.6892 0.332155 2.32463
rclavicle 3.2054e-014 1.74931e-014
rhumerus -33.768 -6.89431 -80.9302
rradius 24.9647
rwrist -6.34282
rhand -19.6705 12.4787
rfingers 7.12502
rthumb 6.6579 -17.3967
lclavicle 3.2054e-014 1.74931e-014
lhumerus -39.4622 11.9745 81.6919
lradius 23.695
lwrist -5.16751
lhand -13.7374 20.163
lfingers 7.12502
lthumb 12.3823 49.7762
rfemur 20.3528 1.33574 31.9607
rtibia -5.40694e-014
rfoot -11.6466 8.16631
rtoes 8.71294
lfemur -32.8412 2.17905 -8.63392
ltibia 27.4636
lfoot -10.9703 -2.89235
ltoes 4.21763
854
root -8.75559 17.3534 21.4521 -46.1879 75.9996 -48.7793
lowerback 4.73342 2.25011 9.29731
upperback 2.44572 3.53781 3.85833
thorax 0.196646 1.891 -1.34573
lowerneck -15.3137 -0.730737 -7.35334
upperneck 32.9711 1.71973 1.42131
head 13.6862 0.357302 2.20564
rclavicle 1.08835e-014 2.10712e-014
rhumerus -33.6876 -6.94919 -81.0309
rradius 25.1003
rwrist -6.25508
rhand -19.4604 12.5311
rfingers 7.12502
rthumb 6.86076 -17.3377
lclavicle 1.08835e-014 2.10712e-014
lhumerus -39.3426 12.2681 81.4811
lradius 23.5052
lwrist -5.44666
lhand -13.4804 19.9888
lfingers 7.12502
lthumb 12.6301 49.587
rfemur 20.8553 1.56667 31.8739
rtibia -1.27222e-014
rfoot -11.1757 8.23715
rtoes 8.96303
lfemur -32.3811 2.84595 -8.97072
ltibia 27.5016
lfoot -10.0479 -3.3323
ltoes 0.717729
855
root -8.63398 17.3588 21.4213 -47.2196 75.3524 -50.3157
lowerback 4.35593 2.272 10.1831
upperback 2.25531 3.57521 4.01234
thorax 0.260066 1.91645 -1.656
lowerneck -15.3977 -0.629371 -7.368
upperneck 33.281 1.8774 1.52391
head 13.8299 0.435001 2.28421
rclavicle -6.36111e-015 8.34896e-015
rhumerus -33.7441 -6.90593 -81.0684
rradius 25.2483
rwrist -6.04917
rhand -19.1001 12.424
rfingers 7.12502
rthumb 7.2085 -17.4332
lclavicle -6.36111e-015 8.34896e-015
lhumerus -39.3336 12.158 81.5499
lradius 23.4464
lwrist -5.17483
lhand -13.7952 20.0378
lfingers 7.12502
lthumb 12.3265 49.6545
rfemur 20.7151 1.82132 32.534
rtibia 0
rfoot -10.7284 8.2028
rtoes 7.43005
lfemur -32.559 2.80486 -8.32628
ltibia 27.2764
lfoot -8.8014 -2.62323
ltoes -1.99997
856
root -8.51663 17.3804 21.4044 -44.3217 76.14 -47.4795
lowerback 4.29456 2.29608 9.15165
upperback 2.14364 3.54834 3.72308
thorax 0.128163 1.87997 -1.39404
lowerneck -15.3563 -0.565075 -7.45648
upperneck 33.4715 1.96889 1.67044
head 13.8962 0.483777 2.37859
rclavicle 1.93318e-014 2.14687e-014
rhumerus -33.7846 -6.56216 -81.2634
rradius 25.3983
rwrist -6.40474
rhand -19.1811 12.2598
rfingers 7.12502
rthumb 7.13034 -17.6001
lclavicle 1.93318e-014 2.14687e-014
lhumerus -39.4723 12.1453 81.5963
lradius 23.6429
lwrist -4.74183
lhand -14.1909 20.0058
lfingers 7.12502
lthumb 11.945 49.645
rfemur 20.9397 1.84081 31.2548
rtibia 6.67916e-014
rfoot -10.1077 8.29585
rtoes 5.8876
lfemur -32.3678 2.60581 -9.59244
ltibia 27.066
lfoot -7.70887 -2.52666
ltoes 1.5318
857
root -8.39166 17.4213 21.4068 -38.6939 77.3255 -41.5111
lowerback 4.50769 2.44423 7.16112
upperback 2.14018 3.66261 3.24921
thorax -0.0825379 1.90697 -0.808512
lowerneck -15.2109 -0.671412 -7.42219
upperneck 33.4687 1.81857 1.60477
head 13.8736 0.417554 2.32121
rclavicle -2.17669e-014 2.5842e-014
rhumerus -33.8922 -6.56661 -81.3512
rradius 25.5725
rwrist -6.83101
rhand -19.2925 12.1621
rfingers 7.12502
rthumb 7.02283 -17.7014
lclavicle -2.17669e-014 2.5842e-014
lhumerus -39.5949 12.1622 81.6241
lradius 23.8116
lwrist -4.55061
lhand -14.3162 19.7375
lfingers 7.12502
lthumb 11.8242 49.3837
rfemur 21.7217 1.90431 29.0975
rtibia 8.26944e-014
rfoot -9.17405 8.68704
rtoes 7.09493
lfemur -31.5945 2.71878 -11.734
ltibia 26.7395
lfoot -7.16591 -2.76759
ltoes 3.32907
858
root -8.27588 17.4304 21.4082 -37.3138 77.6924 -40.0735
lowerback 4.74255 2.49672 6.49835
upperback 2.01447 3.72552 3.10322
thorax -0.373389 1.92121 -0.613923
lowerneck -15.1082 -0.773026 -7.38625
upperneck 33.5634 1.65989 1.61534
head 13.9023 0.356598 2.29639
rclavicle -3.762e-014 -3.45885e-014
rhumerus -34.0423 -6.93029 -81.3623
rradius 25.6544
rwrist -6.71897
rhand -19.0655 12.2704
rfingers 7.12502
rthumb 7.24193 -17.5857
lclavicle -3.762e-014 -3.45885e-014
lhumerus -39.6436 12.1397 81.5925
lradius 23.7701
lwrist -4.42155
lhand -14.6054 19.6448
lfingers 7.12502
lthumb 11.5453 49.3068
rfemur 19.2789 1.75973 28.5041
rtibia 5.51968
rfoot -11.2384 8.77738
rtoes 2.33002
lfemur -31.1598 3.00029 -12.4116
ltibia 26.4113
lfoot -6.74204 -3.1348
ltoes 2.25611
859
root -8.18498 17.437 21.4205 -37.8812 77.9412 -40.6609
lowerback 5.18074 2.35567 5.97359
upperback 1.88233 3.56092 3.17196
thorax -0.801427 1.8238 -0.274781
lowerneck -15.1341 -0.694498 -7.40443
upperneck 33.6517 1.788 1.62798
head 13.9396 0.410289 2.32774
rclavicle -1.5704e-014 -1.94809e-014
rhumerus -33.9289 -6.90972 -81.5205
rradius 25.6654
rwrist -6.62285
rhand -19.1181 12.2104
rfingers 7.12502
rthumb 7.19116 -17.6474
lclavicle -1.5704e-014 -1.94809e-014
lhumerus -39.6423 12.4411 81.4351
lradius 23.8434
lwrist -4.37595
lhand -14.3837 19.6806
lfingers 7.12502
lthumb 11.7591 49.3306
rfemur 17.8195 1.41324 28.5615
rtibia 8.67447
rfoot -11.9808 8.60821
rtoes -2.55038
lfemur -30.9026 2.889 -12.4031
ltibia 26.099
lfoot -6.08371 -3.14099
ltoes 3.54282
860
root -8.04469 17.4532 21.3773 -38.2202 78.5654 -40.8129
lowerback 5.05576 2.13998 5.98366
upperback 2.05034 3.2519 3.05996
thorax -0.565478 1.67813 -0.369389
lowerneck -15.3465 -0.673282 -7.39105
upperneck 33.7468 1.9039 1.44582
head 14.0279 0.43283 2.27536
rclavicle -1.24737e-014 2.5842e-014
rhumerus -33.6455 -6.80682 -81.5225
rradius 25.719
rwrist -6.58904
rhand -19.6294 12.3064
rfingers 7.12502
rthumb 6.69754 -17.5677
lclavicle -1.24737e-014 2.5842e-014
lhumerus -39.4994 12.8836 81.3745
lradius 24.0366
lwrist -4.6533
lhand -13.7375 19.8221
lfingers 7.12502
lthumb 12.3822 49.4353
rfemur 17.3141 0.924501 27.8273
rtibia 10.9809
rfoot -11.9621 8.83902
rtoes -2.87508
lfemur -30.2469 2.45943 -13.0367
ltibia 26.0432
lfoot -5.73683 -3.10086
ltoes 4.94552
861
root -7.92584 17.4729 21.3528 -37.8351 79.2735 -40.4065
lowerback 5.06039 2.00144 5.51918
upperback 2.06123 3.04107 2.983
thorax -0.58793 1.56939 -0.182026
lowerneck -15.5745 -0.702566 -7.36218
upperneck 33.9579 1.9516 1.27736
head 14.1766 0.428969 2.21869
rclavicle 3.3694e-014 1.74931e-014
rhumerus -33.5806 -6.72932 -81.4027
rradius 25.9195
rwrist -6.70425
rhand -19.7399 12.6347
rfingers 7.12502
rthumb 6.59091 -17.2427
lclavicle 3.3694e-014 1.74931e-014
lhumerus -39.3093 12.7477 81.6428
lradius 24.0987
lwrist -4.3238
lhand -13.8366 19.9934
lfingers 7.12502
lthumb 12.2866 49.6125
rfemur 16.5484 0.849076 27.2321
rtibia 13.1884
rfoot -11.6265 8.63138
rtoes -3.41261
lfemur -29.9286 2.32001 -13.8137
ltibia 25.9917
lfoot -5.34376 -3.30933
ltoes 4.26907
862
root -7.79099 17.4962 21.3321 -37.0853 79.6015 -39.6662
lowerback 4.9467 1.991 5.29948
upperback 2.02665 3.00247 2.83318
thorax -0.565222 1.54728 -0.208625
lowerneck -15.5955 -0.722054 -7.32475
upperneck 34.0682 1.87777 1.40664
head 14.2318 0.418742 2.25653
rclavicle 3.72721e-015 5.12864e-014
rhumerus -33.7365 -6.948 -81.4019
rradius 26.2423
rwrist -6.9593
rhand -19.3978 12.6987
rfingers 7.12502
rthumb 6.92114 -17.1682
lclavicle 3.72721e-015 5.12864e-014
lhumerus -39.1787 12.154 81.8954
lradius 24.2039
lwrist -3.58884
lhand -13.9648 19.8642
lfingers 7.12502
lthumb 12.163 49.4906
rfemur 15.8718 1.12913 26.8389
rtibia 15.2016
rfoot -11.0026 8.55724
rtoes -2.82045
lfemur -29.5848 2.69326 -14.4414
ltibia 26.0647
lfoot -5.32226 -3.7243
ltoes 1.89981
